<svg xmlns="http://www.w3.org/2000/svg" viewBox=".574 .35 145.495 37.556"><path fill="#ff0" stroke="#006aff" d="M2.644 27.233q-.391 0-.506-.506-.115-.253-.115-.92 0-2.001-.046-3.565-.069-2.254-.069-4.761v-5.06q0-.207.195-.403.196-.195.403-.195l2.645.023q.736.023 1.932.023 1.725 0 2.668-.023l.851-.023q1.38-.046 2.277-.046 1.449 0 2.76.414 1.541.46 2.507 1.587 1.081 1.219 1.081 3.289 0 3.496-1.771 5.06-1.564 1.472-4.669 1.472H9.636q.023.529.023 1.127 0 .207-.012.494-.011.288-.011.771 0 .759-.322.966-.253.207-.943.207-1.012 0-1.403.023-1.587 0-2.53.046H2.644Zm8.234-6.394q.483 0 .713-.92.184-.621.276-1.84.046-.667.046-1.495v-.253q0-.368-.115-1.104-.092-.414-.207-.656-.115-.241-.299-.402-.184-.207-.414-.207-.115 0-.196.092-.08.092-.149.23-.253.414-.46 1.84-.069.414-.115 1.242-.115 1.265-.115 3.381l.023.023q.023.023.092.046l.276.023ZM27.979 27.831q-.184 0-.506-.046-.161-.046-.506-.046-.874 0-2.162-.391h-.161q-.161 0-.345-.092-.046-.046-.115-.081-.069-.034-.161-.103l-.483-.276q-.69-.391-1.219-1.093-.529-.701-.851-1.552-.621-1.564-.621-3.197 0-1.817.736-3.496.782-1.771 2.093-2.806 1.449-1.15 3.22-1.15.552 0 .851.046 0-.046.069-.046h.069q1.61 0 2.875.115 1.081.161 2.001.667 1.84 1.219 2.645 2.668.851 1.61.851 3.795 0 2.185-1.035 4.094l-.23.368q-.092.138-.115.138l-.069.115-.161.092q-.989 1.472-2.99 2.001-1.334.276-3.68.276Zm.391-1.725q.207 0 .322-.253.276-.414.46-1.61.023-.207.115-.92.092-.713.115-1.334.092-1.564.092-1.932V19.344q0-.828-.069-1.426-.069-.943-.276-1.495-.207-.276-.322-.276-.23 0-.437.345t-.322 1.265l-.483 3.68v.759q.069.966.069 1.265l.046.552.069.736q0 .184.046.322l.253.851q.023.092.126.138.104.046.196.046ZM48.586 27.187q-.046-.115-.115-.115l-.023-.046q-.023 0-.058-.035-.034-.034-.057-.034l-1.817-2.07q-.023-.046-.184-.23t-.253-.276q-.207-.207-.276-.299-.161-.115-.207-.115-.138 0-.138.161v.483q-.046.253-.046.736-.023.276-.023.736-.023.23-.023.483v.368q0 .322-.069.322h-.391q-.667.069-1.978.069H39.662l-.874-.207-.069-.161v-.23q-.023-.138-.023-.575-.023-.46-.023-1.679 0-.575-.046-.851v-.69q-.069-3.496-.069-7.153v-.552q-.046-.23-.046-.506V14.307q0-.046.046-.069.046-.184.172-.265.127-.08.334-.126.092 0 .172.023.081.023.196.023.322.046.391.046h3.91l1.771.023q.046 0 .069.023.023.023.023.069.092.23.092.483.023.115.023.322 0 .989-.023 1.472-.092.621-.092 1.242.276 0 .437-.115.023-.023.069-.046.046-.023.069-.069.046-.069.207-.184l.345-.345q.805-.713.736-.667l1.84-1.725.448-.368.334-.276q.391-.276.483-.276.115 0 .253.23.23.23.276.299.207.391.575.747.368.357.46.449.391.437.598.713.207.276.345.621v.046q0 .345-.529.874-.138.138-.242.23-.103.092-.172.161l-.345.345q-.069 0-.184.161l-.782.644q-.437.391-.759.644l-.184.161-.161.115q-.184.069-.23.115 0 .046-.023.092t-.023.115q0 .161.103.31.104.15.219.288.069.092.299.23l.23.23.391.345.759.667.667.621.782.759q.391.414.563.655.173.242.173.403 0 .23-.161.345-.368.345-.644.529-.46.322-.69.506-.851.667-1.265.897-.092.023-.644.276l-.368.184q-.161.092-.184.092-.276.138-.437.138-.115 0-.184-.069ZM56.701 27.164q-.046 0-.069-.092-.161-.207-.23-.506-.069-.115-.115-.299-.207-.414-.299-1.15-.092-1.058-.092-1.679-.023-.276-.023-.759v-.552q0-.69-.023-1.081-.023-.414-.023-1.633 0-3.266.138-5.037 0-.276.782-.414h1.265q1.311 0 1.955.046.966.069 1.955.069.23 0 .345-.023h.345l.115.092q.759-.161 1.564-.207.805-.046 1.955-.046.046 0 .115.069h.736q.184 0 .288.207.103.207.172.598.092.299.138.736.092.575.161.759 0 .644-.23.644-.023 0-.069-.069l-.092-.023q-.115-.023-.253.023-.138.069-.299.069-.138 0-.23-.069-.046-.023-.207-.023-.207 0-.483.069-.092.023-.356.069-.265.046-.61.046-.989 0-1.426.046-.253.023-.483.138v-.046q-.092 0-.161.23-.161.391-.207 1.081-.023.207-.023.46t.081.345q.08.092.264.092.138 0 .23-.092.046 0 .115.023t.115.069h1.955q.023-.046.069-.069.046-.023.092-.023.23 0 .345.069.138.069.552.138.23 0 .322.138.115.161.115.299l.483 1.518q.069.368-.69.483-.437.092-1.679.092H63.417q-.322 0-.483.034-.161.035-.207.173-.092.115-.092.368v.092q0 .115.023.161l-.023.506q-.023.161-.023.483v.575q1.035 0 2.116-.069 1.058-.069 2.093-.069.069 0 .115.103.046.104.046.242.046.138.046.299.046.345.138.644l.161.667V26.911l-.184.161h-.23q-.253 0-.322-.023-.069-.046-.161-.046l-.138.069q-.092.046-.161.092v-.115l-.276.023h-.345q-.092 0-.138-.046l-.184-.023q-.851 0-1.196.161h-7.291Zm3.864-14.582h-.46q-.161 0-.391-.345-.437-.644-.874-1.679-.092-.161-.195-.368-.104-.207-.219-.414-.207-.322-.552-1.127l-.184-.437-.184-.437q-.046-.092-.195-.437-.15-.345-.357-.644l-.299-.552q-.115-.161-.345-.575-.598-.989-.69-1.196-.207-.345-.23-.437-.069-.138-.069-.23 0-.138.138-.207.115-.069.621-.184h.115q0 .023.046.023l.184-.069.966-.046.138-.023q.046 0 .092-.023t.069-.023h.23q.161 0 .23.046l.138-.069 1.265.023q.437.046 1.472.046l.989.161.184.138q.506 1.84.828 3.565.023.575.138 1.219.299 1.449.345 2.438.046.368.046 1.173 0 .322-.08.506-.081.184-.357.184h-1.909l-.069-.069-.184.069ZM77.071 27.325H73.299q-.207-.322-.276-1.173-.092-.759-.092-2.208l.023-2.53q.023-.92.023-2.921l-.069-.069h-2.277q-.506 0-.667-1.15-.092-.621-.092-1.817v-.299q.046-.161.046-.506v-.46l.023-.184.092-.092.414.023h.46q1.012 0 1.541-.023h4.669q.299.023.851.023h.575q.092-.046.299-.046.161-.046.299-.046.437 0 .667.046.46.046.69.046l.598-.023h.897q.69 0 .943.023l.322.023q.023.023.069.057.046.035.046.058v3.91q0 .138-.15.299-.149.161-.287.207-.759-.161-1.978-.161h-.874q-.345 0-.46.874-.046.253-.046.736v.69q0 .46.023.69v.644q0 .943-.092 1.748-.046.598-.046.874-.046.276-.046.759 0 .69-.046 1.15-.023.713-.529.759-.552.069-.644.069ZM92.182 27.831q-.184 0-.506-.046-.161-.046-.506-.046-.874 0-2.162-.391h-.161q-.161 0-.345-.092-.046-.046-.115-.081-.069-.034-.161-.103l-.483-.276q-.69-.391-1.219-1.093-.529-.701-.851-1.552-.621-1.564-.621-3.197 0-1.817.736-3.496.782-1.771 2.093-2.806 1.449-1.15 3.22-1.15.552 0 .851.046 0-.046.069-.046h.069q1.61 0 2.875.115 1.081.161 2.001.667 1.84 1.219 2.645 2.668.851 1.61.851 3.795 0 2.185-1.035 4.094l-.23.368q-.092.138-.115.138l-.069.115-.161.092q-.989 1.472-2.99 2.001-1.334.276-3.68.276Zm.391-1.725q.207 0 .322-.253.276-.414.46-1.61.023-.207.115-.92.092-.713.115-1.334.092-1.564.092-1.932V19.344q0-.828-.069-1.426-.069-.943-.276-1.495-.207-.276-.322-.276-.23 0-.437.345t-.322 1.265l-.483 3.68v.759q.069.966.069 1.265l.046.552.069.736q0 .184.046.322l.253.851q.023.092.127.138.103.046.195.046ZM109.546 27.831q-.184 0-.506-.046-.161-.046-.506-.046-.874 0-2.162-.391h-.161q-.161 0-.345-.092-.046-.046-.115-.081-.069-.034-.161-.103l-.483-.276q-.69-.391-1.219-1.093-.529-.701-.851-1.552-.621-1.564-.621-3.197 0-1.817.736-3.496.782-1.771 2.093-2.806 1.449-1.15 3.22-1.15.552 0 .851.046 0-.046.069-.046h.069q1.61 0 2.875.115 1.081.161 2.001.667 1.84 1.219 2.645 2.668.851 1.61.851 3.795 0 2.185-1.035 4.094l-.23.368q-.092.138-.115.138l-.069.115-.161.092q-.989 1.472-2.99 2.001-1.334.276-3.68.276Zm.391-1.725q.207 0 .322-.253.276-.414.46-1.61.023-.207.115-.92.092-.713.115-1.334.092-1.564.092-1.932V19.344q0-.828-.069-1.426-.069-.943-.276-1.495-.207-.276-.322-.276-.23 0-.437.345t-.322 1.265l-.483 3.68v.759q.069.966.069 1.265l.046.552.069.736q0 .184.046.322l.253.851q.023.092.126.138.104.046.196.046ZM126.472 27.371l-.299-.046h-.368q-.345-.046-1.196-.092-.184 0-.345-.023-.161-.023-.299-.023h-.506l-.23-.023q-.736 0-1.081.023-.345.046-1.081.046h-.46l-.414.023-.069-.092V23.783q0-.552-.046-.805v-.552l.092-.989q.069-.92.069-2.645.046-2.783.345-4.025.161-.667.529-.851l2.691.023q.345.023.989.023h1.104q.115.023.426.046.31.023.471.115.138.115.196.31.057.196.057.564l-.023.184v.276q-.069.161-.069.322-.046.184-.023.368v.345q.023.115.023.322l.023.184v.529l.023.736q.023.23.023.644.046.322.115.437 0 .161-.023.345-.023.184-.023.368-.023.276-.023.828 0 .529.023.782 0 .368.115.759.23.092.529.092.759 0 1.576-.023.816-.023 1.46-.138.138.023.265.184.126.161.126.276l-.161 3.956q-.046.138-.184.184-.391.184-1.081.23-.92.138-1.219.138h-.391q-.46 0-.69.023-.46.046-.644.046ZM135.78 27.716l-.529-.092q-.759-.115-1.265-.276-.276-.023-.483-.161-.184-.069-.23-.184l-.506-2.852v-.115q0-.161.034-.242.035-.08.15-.103 1.495.575 2.944.575.46 0 .713.023.874 0 1.265-.23.207-.138.207-.391 0-.368-.23-.61-.23-.241-.667-.425l-.736-.276q-.322-.069-.736-.253 0-.023-.023-.035-.023-.011-.046-.057-.092-.023-.391-.23l-.138-.069q.046 0 .046-.023t-.069-.046q-.069-.046-.265-.15-.195-.103-.333-.241-.207-.115-.207-.276v-.115q-.575 0-.989-1.196-.345-1.219-.345-1.725 0-2.139 1.84-3.289 1.495-.943 4.117-1.265 1.702-.184 4.232-.184.322.115.506.138.414.023.552.276.069.115.115.46.069.368.138 2.139.046.046.046.138 0 .184-.506.299-.552.069-.713.069l-.529.069q-.897.115-1.173.161-.943.161-1.311.575-.23.276-.23.575 0 .161.046.253t.23.207q.207.115 1.196.575 1.058.46 2.116 1.196.897.621 1.288 1.656.207.437.207 1.15 0 .644-.161 1.104-.598 1.518-2.254 2.484-.782.46-1.633.724-.851.265-1.633.265l-3.381.069Z" style="white-space:pre"/></svg>